name rise49.5252peak65.1548fall88.8305.mot
datacolumns 19
datarows 26
range 2.09498800000000 2.13665800000000
endheader
time	ground_force1_vx	ground_force1_vy	ground_force1_vz	ground_force1_px	ground_force1_py	ground_force1_pz	ground_force2_vx	ground_force2_vy	ground_force2_vz	ground_force2_px	ground_force2_py	ground_force2_pz	ground_torque1_x	ground_torque1_y	ground_torque1_z	ground_torque2_x	ground_torque2_y	ground_torque2_z	
2.09498800000000	-7.34399000000000	40.29305500000000	-7.60961700000000	0.33724300000000	0.00000000000000	0.13353500000000	-35.32755600000000	803.56174499999997	-59.29548800000000	0.18650700000000	0.00000000000000	-0.05595100000000	0.00000000000000	-4.49966900000000	0.00000000000000	0.00000000000000	-25.86247000000000	0.00000000000000	
2.09665500000000	-8.17193600000000	47.20993200000000	-8.55195700000000	0.34214500000000	0.00000000000000	0.13423600000000	-36.12568100000000	801.98638500000004	-59.09345600000000	0.18545500000000	0.00000000000000	-0.05588000000000	0.00000000000000	-5.11517400000000	0.00000000000000	0.00000000000000	-25.74094900000000	0.00000000000000	
2.09832000000000	-8.89057100000000	54.20744100000000	-9.40528500000000	0.34665000000000	0.00000000000000	0.13487500000000	-36.93161700000000	800.26325099999997	-58.86490200000000	0.18441300000000	0.00000000000000	-0.05580500000000	0.00000000000000	-5.68926500000000	0.00000000000000	0.00000000000000	-25.61347200000000	0.00000000000000	
2.09998900000000	-9.47924900000000	61.19417300000000	-10.14896300000000	0.35081500000000	0.00000000000000	0.13546200000000	-37.74491200000000	798.38933899999995	-58.60956900000000	0.18338100000000	0.00000000000000	-0.05572700000000	0.00000000000000	-6.20858900000000	0.00000000000000	0.00000000000000	-25.48007300000000	0.00000000000000	
2.10165200000000	-9.92447300000000	68.10083100000000	-10.76912800000000	0.35468300000000	0.00000000000000	0.13600500000000	-38.56504700000000	796.36166700000001	-58.32723100000000	0.18235800000000	0.00000000000000	-0.05564500000000	0.00000000000000	-6.66368700000000	0.00000000000000	0.00000000000000	-25.34078600000000	0.00000000000000	
2.10331900000000	-10.21993000000000	74.88234900000000	-11.25878400000000	0.35829300000000	0.00000000000000	0.13651100000000	-39.39143600000000	794.17728099999999	-58.01769200000000	0.18134600000000	0.00000000000000	-0.05556100000000	0.00000000000000	-7.04916800000000	0.00000000000000	0.00000000000000	-25.19564800000000	0.00000000000000	
2.10498800000000	-10.36593600000000	81.51768100000000	-11.61733100000000	0.36167300000000	0.00000000000000	0.13698500000000	-40.22342200000000	791.83326199999999	-57.68078600000000	0.18034500000000	0.00000000000000	-0.05547200000000	0.00000000000000	-7.36351900000000	0.00000000000000	0.00000000000000	-25.04469300000000	0.00000000000000	
2.10665000000000	-10.36844600000000	88.00763800000000	-11.84963900000000	0.36485000000000	0.00000000000000	0.13743100000000	-41.06027900000000	789.32673399999999	-57.31638200000000	0.17935400000000	0.00000000000000	-0.05538100000000	0.00000000000000	-7.60863200000000	0.00000000000000	0.00000000000000	-24.88795300000000	0.00000000000000	
2.10832400000000	-10.23776700000000	94.37131100000001	-11.96484500000000	0.36784400000000	0.00000000000000	0.13785200000000	-41.90120900000000	786.65487900000005	-56.92438200000000	0.17837500000000	0.00000000000000	-0.05528600000000	0.00000000000000	-7.78912200000000	0.00000000000000	0.00000000000000	-24.72546200000000	0.00000000000000	
2.10999000000000	-9.98715000000000	100.64161400000000	-11.97500500000000	0.37067400000000	0.00000000000000	0.13825200000000	-42.74534400000000	783.81493699999999	-56.50472100000000	0.17740800000000	0.00000000000000	-0.05518800000000	0.00000000000000	-7.91154100000000	0.00000000000000	0.00000000000000	-24.55725200000000	0.00000000000000	
2.11165700000000	-9.63138900000000	106.86046200000000	-11.89374300000000	0.37335600000000	0.00000000000000	0.13863300000000	-43.59174400000000	780.80422699999997	-56.05737100000000	0.17645300000000	0.00000000000000	-0.05508600000000	0.00000000000000	-7.98357400000000	0.00000000000000	0.00000000000000	-24.38335200000000	0.00000000000000	
2.11332300000000	-9.18554000000000	113.07406300000000	-11.73501300000000	0.37590200000000	0.00000000000000	0.13899700000000	-44.43939800000000	777.62014699999997	-55.58234000000000	0.17551000000000	0.00000000000000	-0.05498100000000	0.00000000000000	-8.01326700000000	0.00000000000000	0.00000000000000	-24.20379200000000	0.00000000000000	
2.11498600000000	-8.66384700000000	119.32865000000000	-11.51204000000000	0.37832400000000	0.00000000000000	0.13934600000000	-45.28722600000000	774.26019399999996	-55.07967400000000	0.17457900000000	0.00000000000000	-0.05487300000000	0.00000000000000	-8.00836600000000	0.00000000000000	0.00000000000000	-24.01860000000000	0.00000000000000	
2.11665400000000	-8.07891800000000	125.66694200000001	-11.23651200000000	0.38063200000000	0.00000000000000	0.13968200000000	-46.13407500000000	770.72196899999994	-54.54945700000000	0.17366200000000	0.00000000000000	-0.05476100000000	0.00000000000000	-7.97579200000000	0.00000000000000	0.00000000000000	-23.82780300000000	0.00000000000000	
2.11831800000000	-7.44117300000000	132.12545600000001	-10.91802100000000	0.38283500000000	0.00000000000000	0.14000500000000	-46.97872900000000	767.00319100000002	-53.99181400000000	0.17275700000000	0.00000000000000	-0.05464600000000	0.00000000000000	-7.92126900000000	0.00000000000000	0.00000000000000	-23.63142600000000	0.00000000000000	
2.11999000000000	-6.75856200000000	138.73274400000000	-10.56376800000000	0.38493900000000	0.00000000000000	0.14031700000000	-47.81989900000000	763.10170700000003	-53.40690900000000	0.17186600000000	0.00000000000000	-0.05452800000000	0.00000000000000	-7.84910500000000	0.00000000000000	0.00000000000000	-23.42949300000000	0.00000000000000	
2.12165500000000	-6.03651900000000	145.50850500000001	-10.17850400000000	0.38695100000000	0.00000000000000	0.14062000000000	-48.65623400000000	759.01550499999996	-52.79495000000000	0.17098900000000	0.00000000000000	-0.05440600000000	0.00000000000000	-7.76212600000000	0.00000000000000	0.00000000000000	-23.22202900000000	0.00000000000000	
2.12332200000000	-5.27812300000000	152.46349799999999	-9.76466000000000	0.38887800000000	0.00000000000000	0.14091200000000	-49.48632000000000	754.74272399999995	-52.15618900000000	0.17012500000000	0.00000000000000	-0.05428000000000	0.00000000000000	-7.66173100000000	0.00000000000000	0.00000000000000	-23.00905500000000	0.00000000000000	
2.12500100000000	-4.48440200000000	159.60010199999999	-9.32263300000000	0.39072300000000	0.00000000000000	0.14119600000000	-50.30868100000000	750.28166699999997	-51.49091800000000	0.16927600000000	0.00000000000000	-0.05415200000000	0.00000000000000	-7.54804500000000	0.00000000000000	0.00000000000000	-22.79059400000000	0.00000000000000	
2.12665500000000	-3.65475000000000	166.91337200000001	-8.85117700000000	0.39249200000000	0.00000000000000	0.14147300000000	-51.12178200000000	745.63081099999999	-50.79947900000000	0.16844100000000	0.00000000000000	-0.05401900000000	0.00000000000000	-7.42014800000000	0.00000000000000	0.00000000000000	-22.56666800000000	0.00000000000000	
2.12832400000000	-2.78738100000000	174.39241100000001	-8.34784400000000	0.39418700000000	0.00000000000000	0.14174100000000	-51.92403500000000	740.78882099999998	-50.08225800000000	0.16762100000000	0.00000000000000	-0.05388400000000	0.00000000000000	-7.27633500000000	0.00000000000000	0.00000000000000	-22.33729800000000	0.00000000000000	
2.12998400000000	-1.87980900000000	182.02190899999999	-7.80943800000000	0.39581300000000	0.00000000000000	0.14200300000000	-52.71380000000000	735.75456099999997	-49.33968600000000	0.16681500000000	0.00000000000000	-0.05374500000000	0.00000000000000	-7.11439600000000	0.00000000000000	0.00000000000000	-22.10250600000000	0.00000000000000	
2.13164900000000	-0.92928200000000	189.78369400000000	-7.23244500000000	0.39737200000000	0.00000000000000	0.14225900000000	-53.48938700000000	730.52710300000001	-48.57224400000000	0.16602400000000	0.00000000000000	-0.05360200000000	0.00000000000000	-6.93188200000000	0.00000000000000	0.00000000000000	-21.86231600000000	0.00000000000000	
2.13332000000000	0.06682800000000	197.65818700000000	-6.61341400000000	0.39886600000000	0.00000000000000	0.14250800000000	-54.24906200000000	725.10574499999996	-47.78046100000000	0.16524800000000	0.00000000000000	-0.05345600000000	0.00000000000000	-6.72634800000000	0.00000000000000	0.00000000000000	-21.61674900000000	0.00000000000000	
2.13498500000000	1.11071500000000	205.62566899999999	-5.94926900000000	0.40029800000000	0.00000000000000	0.14275100000000	-54.99105200000000	719.49001699999997	-46.96491200000000	0.16448800000000	0.00000000000000	-0.05330600000000	0.00000000000000	-6.49555100000000	0.00000000000000	0.00000000000000	-21.36583100000000	0.00000000000000	
2.13665800000000	2.20391000000000	213.66729900000001	-5.23753600000000	0.40166900000000	0.00000000000000	0.14298900000000	-55.71354600000000	713.67969900000003	-46.12622100000000	0.16374200000000	0.00000000000000	-0.05315300000000	0.00000000000000	-6.23759900000000	0.00000000000000	0.00000000000000	-21.10958900000000	0.00000000000000	
